<svg width="55" height="65" viewBox="0 0 55 65" fill="none" xmlns="http://www.w3.org/2000/svg">
<rect y="0.921875" width="55" height="63.6275" rx="20" fill="#EEEEEE"/>
<g clip-path="url(#clip0_75_34412)">
<path d="M39.3716 33.4266C38.938 33.3665 38.5444 33.7249 38.4925 34.2268C37.8424 40.528 33.2035 45.28 27.7021 45.28C22.754 45.28 18.5046 41.4359 17.2264 36.0784L18.1727 36.6797C18.5557 36.923 19.0367 36.7609 19.2468 36.3181C19.4571 35.8751 19.3172 35.3187 18.9343 35.0754L16.5069 33.5331C16.1244 33.29 15.6438 33.4514 15.4333 33.8937L14.0982 36.6982C13.8875 37.141 14.027 37.6974 14.4095 37.9412C14.8046 38.155 15.2561 38.0499 15.4839 37.5812L15.7933 36.9313C17.3607 42.8793 22.1471 47.1102 27.7021 47.1102C34.0041 47.1102 39.3183 41.6647 40.0631 34.4437C40.1151 33.9418 39.8052 33.4864 39.3716 33.4266Z" fill="#717171"/>
<path d="M40.5214 26.1521C40.1206 25.9521 39.655 26.1659 39.482 26.6301L39.2327 27.2983C38.4539 25.0952 37.2039 23.1237 35.5939 21.5974C33.3772 19.4953 30.5745 18.3379 27.702 18.3379C24.8295 18.3379 22.0268 19.4953 19.8099 21.5974C17.6237 23.6702 16.1002 26.5631 15.5201 29.7431C15.4299 30.2375 15.7035 30.723 16.1309 30.8273C16.5577 30.9317 16.9779 30.6155 17.0679 30.121C17.5741 27.3469 18.9039 24.8226 20.8127 23.0127C22.7473 21.1782 25.1941 20.1681 27.702 20.1681C30.2097 20.1681 32.6565 21.1782 34.5912 23.0127C36.0782 24.4225 37.2136 26.2662 37.8823 28.3237L36.8807 27.8254C36.4795 27.626 36.0141 27.8402 35.8415 28.3044C35.6689 28.7686 35.8543 29.3067 36.2556 29.5064L38.7999 30.7725C39.2329 30.9796 39.6546 30.768 39.839 30.2943L40.9346 27.3546C41.1077 26.8906 40.9227 26.3522 40.5214 26.1521Z" fill="#717171"/>
<path d="M32.5773 25.9912C32.8043 25.4615 32.8391 24.861 32.6757 24.3007C32.5124 23.7405 32.1702 23.2874 31.7123 23.0248C30.7668 22.4829 29.6168 22.9319 29.1482 24.0255C29.0458 24.2647 28.9827 24.5183 28.9593 24.7761C28.3483 24.7111 27.7272 24.7768 27.1253 24.9773C25.9273 25.3757 24.9083 26.2722 24.2561 27.5011L22.1202 31.5256C21.8349 31.4665 21.5399 31.491 21.2577 31.6011C20.8163 31.7734 20.4593 32.1342 20.2527 32.6168L20.1118 32.9454C19.685 33.942 20.0384 35.1547 20.9001 35.6484L25.5238 38.2988C25.0685 39.3946 25.2724 40.6259 26.454 41.3136C27.4899 41.806 28.6431 41.3236 29.0909 40.3437L29.5797 40.6237C29.824 40.7639 30.0873 40.8346 30.3522 40.8346C30.5398 40.8346 30.7283 40.7991 30.9112 40.7276C31.3525 40.5556 31.7094 40.1948 31.9163 39.712L32.0569 39.3834C32.2638 38.9006 32.2957 38.3537 32.1468 37.843C32.0516 37.5165 31.8897 37.2301 31.6763 37.0032L33.1503 32.5996C33.6004 31.2546 33.5996 29.7736 33.1481 28.4295C32.9213 27.7542 32.5903 27.1427 32.1756 26.6196C32.3385 26.4419 32.4749 26.2305 32.5773 25.9912ZM30.8614 24.6215C31.0449 24.6215 31.1936 24.7935 31.1936 25.0056C31.1936 25.2179 31.0449 25.3898 30.8614 25.3898C30.678 25.3898 30.5293 25.2177 30.5293 25.0056C30.5293 24.7935 30.678 24.6215 30.8614 24.6215ZM27.4697 39.6982C27.3659 39.7389 27.2547 39.7301 27.1564 39.6739C27.0582 39.6176 26.9848 39.5204 26.9498 39.4003C26.9224 39.3064 26.9214 39.207 26.9455 39.1141L27.6694 39.529C27.6197 39.6074 27.5509 39.6667 27.4697 39.6982ZM31.675 31.9388L30.0693 36.7353C29.8434 37.328 30.0595 38.0296 30.566 38.3203H30.5662C30.6488 38.3713 30.6791 38.4761 30.6395 38.571L30.4986 38.8996C30.4515 38.9949 30.3674 39.0261 30.2821 38.984L21.6025 34.0087C21.5226 33.9629 21.4896 33.8505 21.5292 33.7582L21.6701 33.4296C21.7082 33.3483 21.7821 33.2907 21.8868 33.345C22.1391 33.4897 22.425 33.5118 22.692 33.4079C22.9439 33.3095 23.1505 33.1096 23.278 32.842L25.6041 28.4589C26.0492 27.62 26.7449 27.0081 27.5626 26.7359C28.3802 26.4638 29.2505 26.5546 30.0127 26.9916C30.0129 26.9916 30.0129 26.9916 30.0131 26.9919C30.0133 26.9919 30.0133 26.9919 30.0135 26.9921C30.7759 27.4291 31.3654 28.175 31.6736 29.0925C31.9818 30.01 31.9822 31.0208 31.675 31.9388Z" fill="#717171"/>
</g>
<defs>
<clipPath id="clip0_75_34412">
<rect width="27" height="31.2353" fill="white" transform="translate(14 17.1172)"/>
</clipPath>
</defs>
</svg>
