<svg width="55" height="64" viewBox="0 0 55 64" fill="none" xmlns="http://www.w3.org/2000/svg">
<rect y="0.119141" width="55" height="63.6275" rx="20" fill="#EEEEEE"/>
<g clip-path="url(#clip0_75_34426)">
<path d="M19.209 42.3724C19.6135 42.3724 19.9414 41.993 19.9414 41.525C19.9414 41.0571 19.6135 40.6777 19.209 40.6777C18.8045 40.6777 18.4766 41.0571 18.4766 41.525C18.4766 41.993 18.8045 42.3724 19.209 42.3724Z" fill="#717171"/>
<path d="M34.8332 31.3975C36.1266 31.1774 37.3002 30.4943 38.227 29.422C39.1094 28.4013 39.6902 27.1127 39.9065 25.6956C40.1178 24.3114 39.9692 22.9036 39.4768 21.6243C39.2679 21.0816 38.6525 20.95 38.2898 21.3698L35.2894 24.8407C35.1656 24.984 34.9641 24.984 34.8402 24.8407L33.6304 23.4412C33.5068 23.2982 33.5068 23.0655 33.6304 22.9225L36.6312 19.4511C36.9943 19.031 36.8799 18.3194 36.4112 18.078C35.3053 17.5082 34.0883 17.3363 32.8918 17.5808C31.6668 17.831 30.5529 18.5029 29.6705 19.5237C28.7437 20.5959 28.1532 21.9535 27.9629 23.4497C27.8058 24.6845 27.9311 25.92 28.325 27.0614L26.1279 29.1492L21.2215 23.4734L22.0847 22.4749C22.394 22.1171 22.3648 21.5261 22.0216 21.2116L18.7007 18.1687C18.4092 17.9017 17.9909 17.9296 17.728 18.2338L15.6564 20.6302C15.3935 20.9343 15.3693 21.4181 15.6002 21.7554L18.2305 25.597C18.5024 25.9941 19.0129 26.0283 19.3226 25.6701L20.1857 24.6715L24.9906 30.2299L15.9715 38.8005C14.7708 39.8991 14.6672 41.9663 15.7494 43.2182L17.7446 45.5262C18.8267 46.778 20.6134 46.6586 21.5634 45.2693L28.9721 34.8358L29.7164 35.6968L28.6459 36.9352C28.3707 37.2534 28.3588 37.765 28.6185 38.1L34.1998 45.2984C35.2975 46.7078 37.191 46.7664 38.3517 45.4236L39.1602 44.4882C40.3234 43.1428 40.2682 40.9364 39.0389 39.6711C39.0384 39.6705 39.0379 39.67 39.0374 39.6695L32.7863 33.2706C32.4964 32.9739 32.0569 32.9893 31.783 33.306L30.7521 34.4986L29.9063 33.5202L31.7112 30.9785C32.6978 31.4342 33.7658 31.5792 34.8332 31.3975ZM18.8682 23.7992L17.1534 21.2948L18.3025 19.9656L20.4674 21.9492L18.8682 23.7992ZM32.3316 35.0679L38.0658 40.9375C38.3561 41.2367 38.5223 41.649 38.5337 42.0986C38.545 42.5486 38.3997 42.9717 38.1245 43.29L37.316 44.2254C37.042 44.5423 36.6779 44.7108 36.2909 44.6988C35.9037 44.6871 35.5476 44.4973 35.2893 44.1656L30.1722 37.5659L32.3316 35.0679ZM30.9367 29.3996L28.3513 33.0405C28.351 33.0409 28.3506 33.0415 28.3503 33.0419L20.4269 44.2002C20.4235 44.205 20.4201 44.2098 20.4168 44.2147C20.0108 44.8128 19.2463 44.8669 18.7804 44.328L16.7852 42.02C16.3204 41.4823 16.365 40.5977 16.8832 40.1269C16.8874 40.1231 16.8916 40.1192 16.8957 40.1153L26.5415 30.9492C26.5418 30.9489 26.542 30.9487 26.5423 30.9484L29.6899 27.9573C29.9571 27.7034 30.0344 27.2678 29.8752 26.9127C28.9521 24.8527 29.2861 22.3648 30.7063 20.7219C31.5809 19.7101 32.7649 19.1725 33.9622 19.1725C34.2202 19.1725 34.4788 19.1975 34.7351 19.248L32.5946 21.7242C31.8999 22.5279 31.8999 23.8356 32.5946 24.6394L33.8044 26.0389C34.4993 26.8428 35.6302 26.8429 36.3252 26.0389L38.4653 23.5632C38.7118 25.2353 38.2542 26.9941 37.1912 28.2238C35.771 29.8667 33.6204 30.253 31.8397 29.1852C31.5327 29.0011 31.1562 29.0904 30.9367 29.3996Z" fill="#717171"/>
</g>
<defs>
<clipPath id="clip0_75_34426">
<rect width="25" height="28.9216" fill="white" transform="translate(15 17.4727)"/>
</clipPath>
</defs>
</svg>
