<svg width="30" height="30" viewBox="0 0 30 30" fill="none" xmlns="http://www.w3.org/2000/svg">
<circle cx="15" cy="15" r="15" fill="#EB5757"/>
<path d="M21.1523 8.63753C21.2109 8.67363 21.259 8.72245 21.2922 8.77969C21.3255 8.83693 21.3429 8.90082 21.343 8.96574V14.8971C21.343 14.9761 21.3173 15.0532 21.2692 15.1186C21.2212 15.184 21.1529 15.2347 21.0733 15.2641L20.9136 14.8971L21.0733 15.2641L21.0708 15.2648L21.0656 15.2672L21.0459 15.2743C20.9329 15.3157 20.8193 15.3552 20.7049 15.393C20.4782 15.4681 20.163 15.5693 19.8058 15.6698C19.105 15.8691 18.1921 16.0834 17.4784 16.0834C16.751 16.0834 16.149 15.8619 15.6252 15.6682L15.6011 15.6603C15.0566 15.4586 14.5929 15.2925 14.0433 15.2925C13.4421 15.2925 12.6366 15.4744 11.9504 15.6698C11.6432 15.7579 11.3387 15.8542 11.0375 15.9584V20.8285C11.0375 20.9333 10.9923 21.0339 10.9117 21.1081C10.8312 21.1822 10.722 21.2239 10.6081 21.2239C10.4942 21.2239 10.385 21.1822 10.3045 21.1081C10.224 21.0339 10.1787 20.9333 10.1787 20.8285V8.96574C10.1787 8.86086 10.224 8.76029 10.3045 8.68613C10.385 8.61197 10.4942 8.57031 10.6081 8.57031C10.722 8.57031 10.8312 8.61197 10.9117 8.68613C10.9923 8.76029 11.0375 8.86086 11.0375 8.96574V9.18876C11.2316 9.12628 11.4635 9.05431 11.7159 8.98314C12.4167 8.78542 13.3305 8.57031 14.0433 8.57031C14.7647 8.57031 15.3521 8.78938 15.8648 8.98076L15.9017 8.995C16.4359 9.1935 16.9013 9.36116 17.4784 9.36116C18.0796 9.36116 18.8851 9.17927 19.5713 8.98393C19.9623 8.87148 20.3488 8.74591 20.7298 8.60748L20.7461 8.60195L20.7496 8.60036H20.7504" fill="white"/>
</svg>
