<svg width="62" height="62" viewBox="0 0 62 62" fill="none" xmlns="http://www.w3.org/2000/svg">
<path d="M49.8906 52.3125V38.75H47.9531V52.3125C47.9531 52.5694 48.0552 52.8158 48.2369 52.9975C48.4185 53.1792 48.6649 53.2812 48.9219 53.2812C49.1788 53.2812 49.4252 53.1792 49.6069 52.9975C49.7886 52.8158 49.8906 52.5694 49.8906 52.3125Z" fill="black"/>
<path d="M31 13.5625C34.7452 13.5625 37.7812 10.5264 37.7812 6.78125C37.7812 3.03607 34.7452 0 31 0C27.2548 0 24.2188 3.03607 24.2188 6.78125C24.2188 10.5264 27.2548 13.5625 31 13.5625Z" fill="black"/>
<path d="M35.0484 14.8282H35.712C39.3758 14.8282 42.5901 17.9524 42.5901 21.514V28.5781H44.5625V21.514C44.5625 17.4932 41.3879 13.9059 37.431 13.0781C36.7398 13.7902 35.9348 14.3818 35.0484 14.8282ZM19.4104 21.514C19.4104 17.9524 22.6247 14.8282 26.2885 14.8282H26.9521C26.0655 14.3818 25.2599 13.7903 24.5685 13.0781C20.6116 13.9064 17.4375 17.4932 17.4375 21.514V28.5781H19.4104V21.514Z" fill="black"/>
<path d="M31 33.4219C34.7452 33.4219 37.7812 30.3858 37.7812 26.6406C37.7812 22.8954 34.7452 19.8594 31 19.8594C27.2548 19.8594 24.2188 22.8954 24.2188 26.6406C24.2188 30.3858 27.2548 33.4219 31 33.4219Z" fill="black"/>
<path d="M17.9219 43.8166V51.8112C17.9215 52.3284 18.1263 52.8246 18.4913 53.191C18.8564 53.5574 19.3519 53.7641 19.8691 53.7656H22.2812C22.2828 54.6661 22.563 55.5441 23.0834 56.2791C23.6037 57.014 24.3387 57.57 25.1875 57.8707V61.0312C25.1875 61.2882 25.2896 61.5346 25.4712 61.7163C25.6529 61.8979 25.8993 62 26.1562 62C26.4132 62 26.6596 61.8979 26.8413 61.7163C27.0229 61.5346 27.125 61.2882 27.125 61.0312V58.125H35.3594V61.0312C35.3594 61.2882 35.4614 61.5346 35.6431 61.7163C35.8248 61.8979 36.0712 62 36.3281 62C36.5851 62 36.8315 61.8979 37.0131 61.7163C37.1948 61.5346 37.2969 61.2882 37.2969 61.0312V57.6648C38.0232 57.3044 38.6346 56.7485 39.0624 56.0597C39.4902 55.3709 39.7175 54.5765 39.7188 53.7656H42.1309C42.6482 53.7641 43.1436 53.5574 43.5087 53.191C43.8737 52.8246 44.0785 52.3284 44.0781 51.8112V43.8166C44.0781 39.3114 40.0869 35.3594 35.5367 35.3594H26.4638C21.9131 35.3594 17.9219 39.3119 17.9219 43.8166ZM26.4638 37.2969H35.5367C37.2635 37.3294 38.9118 38.0242 40.1409 39.2376C41.37 40.451 42.0859 42.0903 42.1406 43.8166L42.1324 51.8281L39.7188 51.8262V44.0781C39.718 43.436 39.4626 42.8205 39.0086 42.3664C38.5545 41.9124 37.939 41.657 37.2969 41.6562H24.7031C24.061 41.657 23.4455 41.9124 22.9915 42.3664C22.5374 42.8205 22.282 43.436 22.2812 44.0781V51.8131L19.8594 51.8112V43.8166C19.8594 40.3436 22.9458 37.2969 26.4638 37.2969ZM14.0469 52.3125V38.75H12.1094V52.3125C12.1094 52.5694 12.2114 52.8158 12.3931 52.9975C12.5748 53.1792 12.8212 53.2812 13.0781 53.2812C13.3351 53.2812 13.5815 53.1792 13.7631 52.9975C13.9448 52.8158 14.0469 52.5694 14.0469 52.3125ZM8.23438 36.8125H18.8737C20.6987 34.8425 23.2029 33.6378 25.8811 33.4413C24.6732 32.5609 23.7095 31.3874 23.081 30.0312H10.1719C9.40137 30.0321 8.66267 30.3386 8.11784 30.8835C7.573 31.4283 7.26652 32.167 7.26562 32.9375V35.8438C7.26562 36.1007 7.36769 36.3471 7.54937 36.5288C7.73104 36.7104 7.97745 36.8125 8.23438 36.8125ZM36.1189 33.4413C38.7973 33.6376 41.3017 34.8423 43.1268 36.8125H53.7656C54.0226 36.8125 54.269 36.7104 54.4506 36.5288C54.6323 36.3471 54.7344 36.1007 54.7344 35.8438V32.9375C54.7335 32.167 54.427 31.4283 53.8822 30.8835C53.3373 30.3386 52.5986 30.0321 51.8281 30.0312H38.9195C38.2909 31.3874 37.327 32.561 36.1189 33.4413Z" fill="black"/>
</svg>
