<svg width="78" height="78" viewBox="0 0 78 78" fill="none" xmlns="http://www.w3.org/2000/svg">
<path d="M23.1562 39C29.2141 39 34.125 34.0891 34.125 28.0312C34.125 21.9734 29.2141 17.0625 23.1562 17.0625C17.0984 17.0625 12.1875 21.9734 12.1875 28.0312C12.1875 34.0891 17.0984 39 23.1562 39Z" fill="#0FA958"/>
<path d="M35.6484 45.0938C31.3584 42.9152 26.6236 42.0469 23.1562 42.0469C16.3648 42.0469 2.4375 46.212 2.4375 54.5391V60.9375H25.2891V58.4893C25.2891 55.5948 26.5078 52.6927 28.6406 50.2734C30.3423 48.3417 32.725 46.5486 35.6484 45.0938Z" fill="#0FA958"/>
<path d="M51.7969 43.875C43.8643 43.875 28.0312 48.7744 28.0312 58.5V65.8125H75.5625V58.5C75.5625 48.7744 59.7294 43.875 51.7969 43.875Z" fill="#0FA958"/>
<path d="M51.7969 39C59.2009 39 65.2031 32.9978 65.2031 25.5938C65.2031 18.1897 59.2009 12.1875 51.7969 12.1875C44.3928 12.1875 38.3906 18.1897 38.3906 25.5938C38.3906 32.9978 44.3928 39 51.7969 39Z" fill="#0FA958"/>
</svg>
