<svg width="40" height="40" viewBox="0 0 40 40" fill="none" xmlns="http://www.w3.org/2000/svg">
<path d="M18.1116 23.8008C17.2883 25.1983 15.7341 26.1392 13.9533 26.1392C11.3091 26.1392 9.16663 24.0642 9.16663 21.5058V18.4933C9.16663 15.935 11.3091 13.8608 13.9533 13.8608C16.5966 13.8608 18.74 15.9358 18.74 18.4942V20H9.16663M30.8333 26.1392L21.26 13.8617M30.8333 13.8617L21.26 26.1383" stroke="#FFBE00" stroke-width="1.5" stroke-linecap="round" stroke-linejoin="round"/>
<path d="M32.0834 4.58337H7.91671C6.07576 4.58337 4.58337 6.07576 4.58337 7.91671V32.0834C4.58337 33.9243 6.07576 35.4167 7.91671 35.4167H32.0834C33.9243 35.4167 35.4167 33.9243 35.4167 32.0834V7.91671C35.4167 6.07576 33.9243 4.58337 32.0834 4.58337Z" stroke="#FFBE00" stroke-width="1.5" stroke-linecap="round" stroke-linejoin="round"/>
</svg>
