<svg width="40" height="40" viewBox="0 0 40 40" fill="none" xmlns="http://www.w3.org/2000/svg">
<path d="M3.75 13.75H36.25M3.75 15H36.25M8.75 23.75H18.75M8.75 27.5H13.75M7.5 32.5H32.5C33.4946 32.5 34.4484 32.1049 35.1516 31.4016C35.8549 30.6984 36.25 29.7446 36.25 28.75V11.25C36.25 10.2554 35.8549 9.30161 35.1516 8.59835C34.4484 7.89509 33.4946 7.5 32.5 7.5H7.5C6.50544 7.5 5.55161 7.89509 4.84835 8.59835C4.14509 9.30161 3.75 10.2554 3.75 11.25V28.75C3.75 29.7446 4.14509 30.6984 4.84835 31.4016C5.55161 32.1049 6.50544 32.5 7.5 32.5Z" stroke="#FFBE00" stroke-width="1.5" stroke-linecap="round" stroke-linejoin="round"/>
</svg>
