<svg width="40" height="40" viewBox="0 0 40 40" fill="none" xmlns="http://www.w3.org/2000/svg">
<path d="M13.5 7C12.3065 7 11.1619 7.47411 10.318 8.31802C9.47411 9.16193 9 10.3065 9 11.5C9 12.6935 9.47411 13.8381 10.318 14.682C11.1619 15.5259 12.3065 16 13.5 16C14.6935 16 15.8381 15.5259 16.682 14.682C17.5259 13.8381 18 12.6935 18 11.5C18 10.3065 17.5259 9.16193 16.682 8.31802C15.8381 7.47411 14.6935 7 13.5 7ZM7 11.5C7 9.77609 7.68482 8.12279 8.90381 6.90381C10.1228 5.68482 11.7761 5 13.5 5C15.2239 5 16.8772 5.68482 18.0962 6.90381C19.3152 8.12279 20 9.77609 20 11.5C20 13.2239 19.3152 14.8772 18.0962 16.0962C16.8772 17.3152 15.2239 18 13.5 18C11.7761 18 10.1228 17.3152 8.90381 16.0962C7.68482 14.8772 7 13.2239 7 11.5ZM7 20C5.93913 20 4.92172 20.4214 4.17157 21.1716C3.42143 21.9217 3 22.9391 3 24V24.168C3.00288 24.285 3.01089 24.4017 3.024 24.518C3.16575 25.8141 3.6261 27.055 4.364 28.13C5.766 30.16 8.474 32 13.5 32C15.392 32 16.954 31.74 18.242 31.306C18.1007 30.646 18.0207 29.966 18.002 29.266C16.874 29.71 15.408 30 13.5 30C9.026 30 6.984 28.402 6.01 26.994C5.46452 26.1982 5.12253 25.2807 5.014 24.322L5.002 24.156L5 24.122V24C5 23.4696 5.21071 22.9609 5.58579 22.5858C5.96086 22.2107 6.46957 22 7 22H20C20.1613 22 20.318 22.0187 20.47 22.056C20.9233 21.496 21.4287 20.986 21.986 20.526C21.3811 20.1807 20.6965 19.9994 20 20H7ZM29 10C28.2044 10 27.4413 10.3161 26.8787 10.8787C26.3161 11.4413 26 12.2044 26 13C26 13.7956 26.3161 14.5587 26.8787 15.1213C27.4413 15.6839 28.2044 16 29 16C29.7956 16 30.5587 15.6839 31.1213 15.1213C31.6839 14.5587 32 13.7956 32 13C32 12.2044 31.6839 11.4413 31.1213 10.8787C30.5587 10.3161 29.7956 10 29 10ZM24 13C24 11.6739 24.5268 10.4021 25.4645 9.46447C26.4021 8.52678 27.6739 8 29 8C30.3261 8 31.5979 8.52678 32.5355 9.46447C33.4732 10.4021 34 11.6739 34 13C34 14.3261 33.4732 15.5979 32.5355 16.5355C31.5979 17.4732 30.3261 18 29 18C27.6739 18 26.4021 17.4732 25.4645 16.5355C24.5268 15.5979 24 14.3261 24 13ZM29 38C30.9744 37.9994 32.8938 37.3495 34.4625 36.1506C36.0312 34.9516 37.162 33.2701 37.6809 31.365C38.1997 29.46 38.0777 27.4373 37.3337 25.6084C36.5896 23.7796 35.2649 22.2462 33.5635 21.2444C31.8621 20.2427 29.8785 19.8282 27.9183 20.0649C25.9581 20.3016 24.1302 21.1763 22.7161 22.5542C21.3021 23.9321 20.3803 25.7368 20.093 27.6902C19.8057 29.6436 20.1686 31.6372 21.126 33.364L20.038 36.942C19.9958 37.0836 19.9927 37.2341 20.0289 37.3774C20.0652 37.5206 20.1395 37.6515 20.244 37.756C20.3485 37.8605 20.4794 37.9348 20.6226 37.9711C20.7659 38.0073 20.9164 38.0042 21.058 37.962L24.638 36.874C25.973 37.6131 27.4741 38.0005 29 38ZM24 27C24 26.7348 24.1054 26.4804 24.2929 26.2929C24.4804 26.1054 24.7348 26 25 26H33C33.2652 26 33.5196 26.1054 33.7071 26.2929C33.8946 26.4804 34 26.7348 34 27C34 27.2652 33.8946 27.5196 33.7071 27.7071C33.5196 27.8946 33.2652 28 33 28H25C24.7348 28 24.4804 27.8946 24.2929 27.7071C24.1054 27.5196 24 27.2652 24 27ZM25 32C24.7348 32 24.4804 31.8946 24.2929 31.7071C24.1054 31.5196 24 31.2652 24 31C24 30.7348 24.1054 30.4804 24.2929 30.2929C24.4804 30.1054 24.7348 30 25 30H29C29.2652 30 29.5196 30.1054 29.7071 30.2929C29.8946 30.4804 30 30.7348 30 31C30 31.2652 29.8946 31.5196 29.7071 31.7071C29.5196 31.8946 29.2652 32 29 32H25Z" fill="#FFBE00"/>
</svg>
