<svg width="32" height="33" viewBox="0 0 32 33" fill="none" xmlns="http://www.w3.org/2000/svg">
<path d="M8 8.5C9.52047 6.97953 10.2807 6.2193 11.0415 5.71701C14.0491 3.73156 17.9509 3.73156 20.9585 5.71701C21.7193 6.2193 22.4795 6.97953 24 8.5C25.5205 10.0205 26.2807 10.7807 26.783 11.5415C28.7684 14.5491 28.7684 18.4509 26.783 21.4585C26.2807 22.2193 25.5205 22.9795 24 24.5C22.4795 26.0205 21.7193 26.7807 20.9585 27.283C17.9509 29.2684 14.0491 29.2684 11.0415 27.283C10.2807 26.7807 9.52047 26.0205 8 24.5C6.47953 22.9795 5.7193 22.2193 5.21701 21.4585C3.23156 18.4509 3.23156 14.5491 5.21701 11.5415C5.7193 10.7807 6.47953 10.0205 8 8.5Z" fill="url(#paint0_linear_1_2805)"/>
<path d="M8.35355 8.85355C9.89146 7.31565 10.6091 6.60163 11.317 6.13428C14.1574 4.25913 17.8426 4.25913 20.683 6.13428C21.3909 6.60163 22.1085 7.31565 23.6464 8.85355C25.1844 10.3915 25.8984 11.1091 26.3657 11.817C28.2409 14.6574 28.2409 18.3426 26.3657 21.183C25.8984 21.8909 25.1843 22.6085 23.6464 24.1464C22.1085 25.6843 21.3909 26.3984 20.683 26.8657C17.8426 28.7409 14.1574 28.7409 11.317 26.8657C10.6091 26.3984 9.89146 25.6844 8.35355 24.1464C6.81565 22.6085 6.10163 21.8909 5.63428 21.183C3.75913 18.3426 3.75913 14.6574 5.63428 11.817C6.10163 11.1091 6.81565 10.3915 8.35355 8.85355Z" stroke="white" stroke-opacity="0.1"/>
<path d="M9.3335 16.9934L13.4202 21.0801" stroke="white" stroke-width="1.5" stroke-miterlimit="10" stroke-linecap="round" stroke-linejoin="round"/>
<path d="M13.4199 21.0799L22.6666 11.8333" stroke="white" stroke-width="1.5" stroke-miterlimit="10" stroke-linecap="round" stroke-linejoin="round"/>
<defs>
<linearGradient id="paint0_linear_1_2805" x1="16" y1="0.5" x2="16" y2="32.5" gradientUnits="userSpaceOnUse">
<stop stop-color="white" stop-opacity="0.02"/>
<stop offset="1" stop-color="white" stop-opacity="0.1"/>
</linearGradient>
</defs>
</svg>
