<svg width="120" height="36" viewBox="0 0 120 36" fill="none" xmlns="http://www.w3.org/2000/svg">
<g clip-path="url(#clip0_27_1801)">
<path d="M60.1237 11.5C55.6387 11.5 52.4048 14.425 52.4048 18.8125C52.4048 23.2 56.0409 26.125 60.53 26.125C63.2395 26.125 65.6284 25.0525 67.107 23.2447L63.9992 21.4491C63.1787 22.3469 61.9314 22.8709 60.53 22.8709C58.5839 22.8709 56.9306 21.8553 56.317 20.2303H67.7003C67.7895 19.7753 67.8425 19.3041 67.8425 18.8084C67.8425 14.425 64.6128 11.5 60.1237 11.5ZM56.2845 17.3906C56.7923 15.7697 58.1817 14.75 60.1237 14.75C62.0695 14.75 63.4589 15.7697 63.9628 17.3906H56.2845ZM55.3664 7.03125L44.1092 26.5312L32.8481 7.03125H37.0689L44.1053 19.2188L51.1414 7.03125H55.3664ZM17.3171 5L32.3281 31H2.30615L17.3171 5ZM84.1737 18.8125C84.1737 21.25 85.7662 22.875 88.2362 22.875C89.91 22.875 91.1653 22.1153 91.8112 20.8763L94.9312 22.6759C93.6392 24.8291 91.2181 26.125 88.2362 26.125C83.747 26.125 80.5175 23.2 80.5175 18.8125C80.5175 14.425 83.7512 11.5 88.2362 11.5C91.2181 11.5 93.6353 12.7959 94.9312 14.9491L91.8112 16.7488C91.1653 15.5097 89.91 14.75 88.2362 14.75C85.7703 14.75 84.1737 16.375 84.1737 18.8125ZM117.681 7.03125V25.7188H114.025V7.03125H117.681ZM103.869 11.5C99.3837 11.5 96.15 14.425 96.15 18.8125C96.15 23.2 99.79 26.125 104.275 26.125C106.984 26.125 109.373 25.0525 110.852 23.2447L107.744 21.4491C106.924 22.3469 105.676 22.8709 104.275 22.8709C102.329 22.8709 100.676 21.8553 100.062 20.2303H111.445C111.535 19.7753 111.587 19.3041 111.587 18.8084C111.587 14.425 108.358 11.5 103.869 11.5ZM100.029 17.3906C100.538 15.7697 101.923 14.75 103.869 14.75C105.814 14.75 107.204 15.7697 107.708 17.3906H100.029ZM79.2987 11.9062V15.8428C78.8925 15.725 78.4617 15.6438 77.9987 15.6438C75.6384 15.6438 73.9362 17.2688 73.9362 19.7063V25.7188H70.28V11.9062H73.9362V15.6438C73.9362 13.58 76.337 11.9062 79.2987 11.9062Z" fill="white"/>
</g>
<defs>
<clipPath id="clip0_27_1801">
<rect width="115.388" height="26" fill="white" transform="translate(2.30615 5)"/>
</clipPath>
</defs>
</svg>
