<svg width="40" height="40" viewBox="0 0 40 40" fill="none" xmlns="http://www.w3.org/2000/svg">
<path d="M24.6486 15.7143C25.5011 15.7143 26.3187 16.053 26.9215 16.6558C27.5242 17.2586 27.8629 18.0761 27.8629 18.9286V27.8558C27.8629 29.94 27.0349 31.9388 25.5612 33.4126C24.0874 34.8864 22.0885 35.7143 20.0043 35.7143C17.9201 35.7143 15.9212 34.8864 14.4475 33.4126C12.9737 31.9388 12.1458 29.94 12.1458 27.8558V18.9286C12.1458 18.0761 12.4844 17.2586 13.0872 16.6558C13.69 16.053 14.5076 15.7143 15.36 15.7143H24.6486ZM24.6486 17.8572H15.36C15.0759 17.8572 14.8034 17.9701 14.6024 18.171C14.4015 18.3719 14.2886 18.6445 14.2886 18.9286V27.8558C14.2886 29.3717 14.8908 30.8255 15.9627 31.8974C17.0346 32.9693 18.4884 33.5715 20.0043 33.5715C21.5202 33.5715 22.974 32.9693 24.0459 31.8974C25.1178 30.8255 25.72 29.3717 25.72 27.8558V18.9286C25.72 18.6445 25.6072 18.3719 25.4062 18.171C25.2053 17.9701 24.9328 17.8572 24.6486 17.8572ZM6.07147 15.7143H12.0086C11.4349 16.3114 11.0318 17.0514 10.8415 17.8572H6.07147C5.78731 17.8572 5.51478 17.9701 5.31385 18.171C5.11292 18.3719 5.00004 18.6445 5.00004 18.9286V26.4272C4.99947 27.1441 5.17877 27.8497 5.52151 28.4794C5.86425 29.1091 6.35949 29.6428 6.96186 30.0315C7.56424 30.4203 8.25452 30.6517 8.96949 30.7046C9.68447 30.7575 10.4013 30.6302 11.0543 30.3343C11.2443 31.0343 11.5172 31.7001 11.86 32.3229C10.8813 32.7506 9.81141 32.9277 8.74706 32.8382C7.6827 32.7487 6.65742 32.3954 5.76386 31.8103C4.8703 31.2251 4.13662 30.4265 3.62913 29.4867C3.12165 28.5468 2.85634 27.4953 2.85718 26.4272V18.9286C2.85718 18.0761 3.19583 17.2586 3.79862 16.6558C4.40142 16.053 5.21898 15.7143 6.07147 15.7143ZM33.9286 15.7143C34.7811 15.7143 35.5987 16.053 36.2015 16.6558C36.8042 17.2586 37.1429 18.0761 37.1429 18.9286V26.4286C37.1433 27.496 36.878 28.5467 36.3708 29.4859C35.8636 30.425 35.1306 31.2232 34.2378 31.8082C33.345 32.3932 32.3206 32.7467 31.2571 32.8368C30.1935 32.9269 29.1242 32.7508 28.1458 32.3243L28.2258 32.1786C28.5315 31.5986 28.7786 30.9829 28.9558 30.3372C29.6085 30.6309 30.3243 30.7564 31.038 30.7024C31.7517 30.6483 32.4405 30.4164 33.0415 30.0277C33.6425 29.6391 34.1367 29.1061 34.4788 28.4774C34.8209 27.8487 35.0001 27.1444 35 26.4286V18.9286C35 18.6447 34.8874 18.3724 34.6867 18.1715C34.4861 17.9706 34.214 17.8576 33.93 17.8572H29.1686C28.9778 17.0512 28.5743 16.3112 28 15.7143H33.9286ZM20 4.28577C20.6566 4.28577 21.3068 4.4151 21.9135 4.66637C22.5201 4.91764 23.0713 5.28594 23.5356 5.75023C23.9999 6.21453 24.3682 6.76572 24.6194 7.37235C24.8707 7.97898 25 8.62916 25 9.28577C25 9.94238 24.8707 10.5926 24.6194 11.1992C24.3682 11.8058 23.9999 12.357 23.5356 12.8213C23.0713 13.2856 22.5201 13.6539 21.9135 13.9052C21.3068 14.1564 20.6566 14.2858 20 14.2858C18.674 14.2858 17.4022 13.759 16.4645 12.8213C15.5268 11.8836 15 10.6118 15 9.28577C15 7.95968 15.5268 6.68791 16.4645 5.75023C17.4022 4.81255 18.674 4.28577 20 4.28577ZM31.4329 5.71434C31.9957 5.71434 32.553 5.82519 33.073 6.04057C33.5929 6.25595 34.0654 6.57163 34.4634 6.96959C34.8613 7.36756 35.177 7.84001 35.3924 8.35998C35.6078 8.87995 35.7186 9.43724 35.7186 10.0001C35.7186 10.5629 35.6078 11.1202 35.3924 11.6401C35.177 12.1601 34.8613 12.6325 34.4634 13.0305C34.0654 13.4285 33.5929 13.7442 33.073 13.9595C32.553 14.1749 31.9957 14.2858 31.4329 14.2858C30.2963 14.2858 29.2062 13.8342 28.4024 13.0305C27.5987 12.2268 27.1472 11.1367 27.1472 10.0001C27.1472 8.86341 27.5987 7.77332 28.4024 6.96959C29.2062 6.16587 30.2963 5.71434 31.4329 5.71434ZM8.56718 5.71434C9.12999 5.71434 9.68729 5.82519 10.2073 6.04057C10.7272 6.25595 11.1997 6.57163 11.5976 6.96959C11.9956 7.36756 12.3113 7.84001 12.5267 8.35998C12.742 8.87995 12.8529 9.43724 12.8529 10.0001C12.8529 10.5629 12.742 11.1202 12.5267 11.6401C12.3113 12.1601 11.9956 12.6325 11.5976 13.0305C11.1997 13.4285 10.7272 13.7442 10.2073 13.9595C9.68729 14.1749 9.12999 14.2858 8.56718 14.2858C7.43054 14.2858 6.34045 13.8342 5.53672 13.0305C4.73299 12.2268 4.28147 11.1367 4.28147 10.0001C4.28147 8.86341 4.73299 7.77332 5.53672 6.96959C6.34045 6.16587 7.43054 5.71434 8.56718 5.71434ZM20 6.42862C19.2423 6.42862 18.5156 6.72964 17.9797 7.26546C17.4439 7.80128 17.1429 8.52801 17.1429 9.28577C17.1429 10.0435 17.4439 10.7703 17.9797 11.3061C18.5156 11.8419 19.2423 12.1429 20 12.1429C20.7578 12.1429 21.4845 11.8419 22.0203 11.3061C22.5562 10.7703 22.8572 10.0435 22.8572 9.28577C22.8572 8.52801 22.5562 7.80128 22.0203 7.26546C21.4845 6.72964 20.7578 6.42862 20 6.42862ZM31.4329 7.8572C31.1515 7.8572 30.8728 7.91262 30.6129 8.02031C30.3529 8.128 30.1166 8.28584 29.9177 8.48482C29.7187 8.68381 29.5608 8.92003 29.4532 9.18002C29.3455 9.44 29.29 9.71865 29.29 10.0001C29.29 10.2815 29.3455 10.5601 29.4532 10.8201C29.5608 11.0801 29.7187 11.3163 29.9177 11.5153C30.1166 11.7143 30.3529 11.8721 30.6129 11.9798C30.8728 12.0875 31.1515 12.1429 31.4329 12.1429C32.0012 12.1429 32.5463 11.9171 32.9481 11.5153C33.35 11.1134 33.5758 10.5684 33.5758 10.0001C33.5758 9.43173 33.35 8.88669 32.9481 8.48482C32.5463 8.08296 32.0012 7.8572 31.4329 7.8572ZM8.56718 7.8572C8.28578 7.8572 8.00713 7.91262 7.74714 8.02031C7.48716 8.128 7.25093 8.28584 7.05195 8.48482C6.85297 8.68381 6.69513 8.92003 6.58744 9.18002C6.47975 9.44 6.42432 9.71865 6.42432 10.0001C6.42432 10.2815 6.47975 10.5601 6.58744 10.8201C6.69513 11.0801 6.85297 11.3163 7.05195 11.5153C7.25093 11.7143 7.48716 11.8721 7.74714 11.9798C8.00713 12.0875 8.28578 12.1429 8.56718 12.1429C9.1355 12.1429 9.68054 11.9171 10.0824 11.5153C10.4843 11.1134 10.71 10.5684 10.71 10.0001C10.71 9.43173 10.4843 8.88669 10.0824 8.48482C9.68054 8.08296 9.1355 7.8572 8.56718 7.8572Z" fill="#FFBE00"/>
</svg>
