<svg width="40" height="40" viewBox="0 0 40 40" fill="none" xmlns="http://www.w3.org/2000/svg">
<path d="M19.9999 34.9366C16.651 33.9422 13.8694 31.9139 11.6549 28.8516C9.44047 25.7894 8.33325 22.3389 8.33325 18.5V9.48663L19.9999 5.1283L31.6666 9.48663V18.5C31.6666 22.3377 30.5594 25.7877 28.3449 28.85C26.1305 31.9122 23.3488 33.94 19.9999 34.9366ZM19.9999 33.1683C22.6944 32.335 24.9444 30.6894 26.7499 28.2316C28.5555 25.7738 29.611 23.03 29.9166 20H19.9999V6.90663L9.99992 10.625V19.2183C9.99992 19.4339 10.0277 19.6944 10.0833 20H19.9999V33.1683Z" fill="#FFBE00"/>
</svg>
