<svg width="40" height="40" viewBox="0 0 40 40" fill="none" xmlns="http://www.w3.org/2000/svg">
<path d="M22.7109 4.58337H17.5817C16.9825 4.58337 16.4967 5.06915 16.4967 5.66837V34.1125C16.4967 34.7118 16.9825 35.1975 17.5817 35.1975H22.7109C23.3101 35.1975 23.7959 34.7118 23.7959 34.1125V5.66837C23.7959 5.06915 23.3101 4.58337 22.7109 4.58337Z" stroke="#FFBE00" stroke-linecap="round" stroke-linejoin="round"/>
<path d="M29.1364 12.1246L25.3474 12.7927C24.905 12.8707 24.6096 13.2926 24.6876 13.7349L28.3923 34.745C28.4703 35.1874 28.8921 35.4827 29.3345 35.4047L33.1235 34.7366C33.5659 34.6586 33.8613 34.2368 33.7833 33.7944L30.0786 12.7844C30.0006 12.342 29.5788 12.0466 29.1364 12.1246Z" stroke="#FFBE00" stroke-linecap="round" stroke-linejoin="round"/>
<path d="M25.2699 16.3184L27.0557 16.0034" stroke="#FFBE00" stroke-linecap="round" stroke-linejoin="round"/>
<path d="M16.4967 31.6891H23.7959M16.4967 29.5758H23.7959M16.4975 27.6516H23.7959" stroke="#FFBE00" stroke-linecap="round" stroke-linejoin="round"/>
<path d="M10.4412 9.79809L6.22071 33.408C6.11527 33.9979 6.50798 34.5616 7.09785 34.667L10.75 35.3198C11.3398 35.4253 11.9035 35.0326 12.009 34.4427L16.2294 10.8328C16.3349 10.2429 15.9421 9.67923 15.3523 9.57379L11.7002 8.92095C11.1103 8.8155 10.5466 9.20821 10.4412 9.79809Z" stroke="#FFBE00" stroke-linecap="round" stroke-linejoin="round"/>
<path d="M9.69666 14.2125L15.0858 15.1742" stroke="#FFBE00" stroke-linecap="round" stroke-linejoin="round"/>
</svg>
