<svg width="51" height="51" viewBox="0 0 51 51" fill="none" xmlns="http://www.w3.org/2000/svg">
<path d="M0.833252 25.5C0.833252 11.969 11.8023 1 25.3333 1C38.8642 1 49.8333 11.969 49.8333 25.5C49.8333 39.031 38.8642 50 25.3333 50C11.8023 50 0.833252 39.031 0.833252 25.5Z" fill="black"/>
<path d="M0.833252 25.5C0.833252 11.969 11.8023 1 25.3333 1C38.8642 1 49.8333 11.969 49.8333 25.5C49.8333 39.031 38.8642 50 25.3333 50C11.8023 50 0.833252 39.031 0.833252 25.5Z" stroke="#FFBE00"/>
<path d="M30.6667 32.1665H29.3333V30.8332C29.3333 30.3027 29.1226 29.794 28.7475 29.419C28.3725 29.0439 27.8638 28.8332 27.3333 28.8332H23.3333C22.8029 28.8332 22.2942 29.0439 21.9191 29.419C21.544 29.794 21.3333 30.3027 21.3333 30.8332V32.1665H20V30.8332C20 29.9491 20.3512 29.1013 20.9763 28.4761C21.6014 27.851 22.4493 27.4998 23.3333 27.4998H27.3333C28.2174 27.4998 29.0652 27.851 29.6904 28.4761C30.3155 29.1013 30.6667 29.9491 30.6667 30.8332V32.1665ZM25.3333 26.1665C24.808 26.1665 24.2879 26.063 23.8026 25.862C23.3173 25.661 22.8763 25.3664 22.5049 24.9949C22.1335 24.6235 21.8388 24.1825 21.6378 23.6972C21.4368 23.2119 21.3333 22.6918 21.3333 22.1665C21.3333 21.6412 21.4368 21.1211 21.6378 20.6358C21.8388 20.1505 22.1335 19.7095 22.5049 19.3381C22.8763 18.9666 23.3173 18.672 23.8026 18.471C24.2879 18.27 24.808 18.1665 25.3333 18.1665C26.3942 18.1665 27.4116 18.5879 28.1618 19.3381C28.9119 20.0882 29.3333 21.1056 29.3333 22.1665C29.3333 23.2274 28.9119 24.2448 28.1618 24.9949C27.4116 25.7451 26.3942 26.1665 25.3333 26.1665ZM25.3333 24.8332C26.0406 24.8332 26.7189 24.5522 27.219 24.0521C27.719 23.552 28 22.8737 28 22.1665C28 21.4593 27.719 20.781 27.219 20.2809C26.7189 19.7808 26.0406 19.4998 25.3333 19.4998C24.6261 19.4998 23.9478 19.7808 23.4477 20.2809C22.9476 20.781 22.6667 21.4593 22.6667 22.1665C22.6667 22.8737 22.9476 23.552 23.4477 24.0521C23.9478 24.5522 24.6261 24.8332 25.3333 24.8332Z" fill="#FFBE00"/>
</svg>
