<svg width="36" height="32" viewBox="0 0 36 32" fill="none" xmlns="http://www.w3.org/2000/svg">
<path d="M22.6486 11.7143C23.5011 11.7143 24.3187 12.053 24.9215 12.6558C25.5242 13.2586 25.8629 14.0761 25.8629 14.9286V23.8558C25.8629 25.94 25.0349 27.9388 23.5612 29.4126C22.0874 30.8864 20.0885 31.7143 18.0043 31.7143C15.9201 31.7143 13.9212 30.8864 12.4475 29.4126C10.9737 27.9388 10.1458 25.94 10.1458 23.8558V14.9286C10.1458 14.0761 10.4844 13.2586 11.0872 12.6558C11.69 12.053 12.5076 11.7143 13.36 11.7143H22.6486ZM22.6486 13.8572H13.36C13.0759 13.8572 12.8034 13.9701 12.6024 14.171C12.4015 14.3719 12.2886 14.6445 12.2886 14.9286V23.8558C12.2886 25.3717 12.8908 26.8255 13.9627 27.8974C15.0346 28.9693 16.4884 29.5715 18.0043 29.5715C19.5202 29.5715 20.974 28.9693 22.0459 27.8974C23.1178 26.8255 23.72 25.3717 23.72 23.8558V14.9286C23.72 14.6445 23.6072 14.3719 23.4062 14.171C23.2053 13.9701 22.9328 13.8572 22.6486 13.8572ZM4.07147 11.7143H10.0086C9.4349 12.3114 9.03184 13.0514 8.84147 13.8572H4.07147C3.78731 13.8572 3.51478 13.9701 3.31385 14.171C3.11292 14.3719 3.00004 14.6445 3.00004 14.9286V22.4272C2.99947 23.1441 3.17877 23.8497 3.52151 24.4794C3.86425 25.1091 4.35949 25.6428 4.96186 26.0315C5.56424 26.4203 6.25452 26.6517 6.96949 26.7046C7.68447 26.7575 8.40129 26.6302 9.05432 26.3343C9.24432 27.0343 9.51718 27.7001 9.86004 28.3229C8.8813 28.7506 7.81141 28.9277 6.74706 28.8382C5.6827 28.7487 4.65742 28.3954 3.76386 27.8103C2.8703 27.2251 2.13662 26.4265 1.62913 25.4867C1.12165 24.5468 0.856336 23.4953 0.85718 22.4272V14.9286C0.85718 14.0761 1.19583 13.2586 1.79862 12.6558C2.40142 12.053 3.21898 11.7143 4.07147 11.7143ZM31.9286 11.7143C32.7811 11.7143 33.5987 12.053 34.2015 12.6558C34.8042 13.2586 35.1429 14.0761 35.1429 14.9286V22.4286C35.1433 23.496 34.878 24.5467 34.3708 25.4859C33.8636 26.425 33.1306 27.2232 32.2378 27.8082C31.345 28.3932 30.3206 28.7467 29.2571 28.8368C28.1935 28.9269 27.1242 28.7508 26.1458 28.3243L26.2258 28.1786C26.5315 27.5986 26.7786 26.9829 26.9558 26.3372C27.6085 26.6309 28.3243 26.7564 29.038 26.7024C29.7517 26.6483 30.4405 26.4164 31.0415 26.0277C31.6425 25.6391 32.1367 25.1061 32.4788 24.4774C32.8209 23.8487 33.0001 23.1444 33 22.4286V14.9286C33 14.6447 32.8874 14.3724 32.6867 14.1715C32.4861 13.9706 32.214 13.8576 31.93 13.8572H27.1686C26.9778 13.0512 26.5743 12.3112 26 11.7143H31.9286ZM18 0.285767C18.6566 0.285767 19.3068 0.415095 19.9135 0.666369C20.5201 0.917642 21.0713 1.28594 21.5356 1.75023C21.9999 2.21453 22.3682 2.76572 22.6194 3.37235C22.8707 3.97898 23 4.62916 23 5.28577C23 5.94238 22.8707 6.59256 22.6194 7.19918C22.3682 7.80581 21.9999 8.35701 21.5356 8.8213C21.0713 9.28559 20.5201 9.65389 19.9135 9.90516C19.3068 10.1564 18.6566 10.2858 18 10.2858C16.674 10.2858 15.4022 9.75898 14.4645 8.8213C13.5268 7.88362 13 6.61185 13 5.28577C13 3.95968 13.5268 2.68791 14.4645 1.75023C15.4022 0.812551 16.674 0.285767 18 0.285767ZM29.4329 1.71434C29.9957 1.71434 30.553 1.82519 31.073 2.04057C31.5929 2.25595 32.0654 2.57163 32.4634 2.96959C32.8613 3.36756 33.177 3.84001 33.3924 4.35998C33.6078 4.87995 33.7186 5.43724 33.7186 6.00005C33.7186 6.56286 33.6078 7.12016 33.3924 7.64012C33.177 8.16009 32.8613 8.63255 32.4634 9.03051C32.0654 9.42848 31.5929 9.74416 31.073 9.95954C30.553 10.1749 29.9957 10.2858 29.4329 10.2858C28.2963 10.2858 27.2062 9.83424 26.4024 9.03051C25.5987 8.22678 25.1472 7.13669 25.1472 6.00005C25.1472 4.86341 25.5987 3.77332 26.4024 2.96959C27.2062 2.16587 28.2963 1.71434 29.4329 1.71434ZM6.56718 1.71434C7.12999 1.71434 7.68729 1.82519 8.20725 2.04057C8.72722 2.25595 9.19967 2.57163 9.59764 2.96959C9.9956 3.36756 10.3113 3.84001 10.5267 4.35998C10.742 4.87995 10.8529 5.43724 10.8529 6.00005C10.8529 6.56286 10.742 7.12016 10.5267 7.64012C10.3113 8.16009 9.9956 8.63255 9.59764 9.03051C9.19967 9.42848 8.72722 9.74416 8.20725 9.95954C7.68729 10.1749 7.12999 10.2858 6.56718 10.2858C5.43054 10.2858 4.34045 9.83424 3.53672 9.03051C2.73299 8.22678 2.28147 7.13669 2.28147 6.00005C2.28147 4.86341 2.73299 3.77332 3.53672 2.96959C4.34045 2.16587 5.43054 1.71434 6.56718 1.71434ZM18 2.42862C17.2423 2.42862 16.5156 2.72964 15.9797 3.26546C15.4439 3.80128 15.1429 4.52801 15.1429 5.28577C15.1429 6.04353 15.4439 6.77025 15.9797 7.30607C16.5156 7.84189 17.2423 8.14291 18 8.14291C18.7578 8.14291 19.4845 7.84189 20.0203 7.30607C20.5562 6.77025 20.8572 6.04353 20.8572 5.28577C20.8572 4.52801 20.5562 3.80128 20.0203 3.26546C19.4845 2.72964 18.7578 2.42862 18 2.42862ZM29.4329 3.8572C29.1515 3.8572 28.8728 3.91262 28.6129 4.02031C28.3529 4.128 28.1166 4.28584 27.9177 4.48482C27.7187 4.68381 27.5608 4.92003 27.4532 5.18002C27.3455 5.44 27.29 5.71865 27.29 6.00005C27.29 6.28146 27.3455 6.5601 27.4532 6.82009C27.5608 7.08007 27.7187 7.3163 27.9177 7.51528C28.1166 7.71426 28.3529 7.87211 28.6129 7.97979C28.8728 8.08748 29.1515 8.14291 29.4329 8.14291C30.0012 8.14291 30.5463 7.91715 30.9481 7.51528C31.35 7.11342 31.5758 6.56837 31.5758 6.00005C31.5758 5.43173 31.35 4.88669 30.9481 4.48482C30.5463 4.08296 30.0012 3.8572 29.4329 3.8572ZM6.56718 3.8572C6.28578 3.8572 6.00713 3.91262 5.74714 4.02031C5.48716 4.128 5.25093 4.28584 5.05195 4.48482C4.85297 4.68381 4.69513 4.92003 4.58744 5.18002C4.47975 5.44 4.42432 5.71865 4.42432 6.00005C4.42432 6.28146 4.47975 6.5601 4.58744 6.82009C4.69513 7.08007 4.85297 7.3163 5.05195 7.51528C5.25093 7.71426 5.48716 7.87211 5.74714 7.97979C6.00713 8.08748 6.28578 8.14291 6.56718 8.14291C7.1355 8.14291 7.68054 7.91715 8.08241 7.51528C8.48427 7.11342 8.71004 6.56837 8.71004 6.00005C8.71004 5.43173 8.48427 4.88669 8.08241 4.48482C7.68054 4.08296 7.1355 3.8572 6.56718 3.8572Z" fill="#FFBE00"/>
</svg>
