<svg width="40" height="40" viewBox="0 0 40 40" fill="none" xmlns="http://www.w3.org/2000/svg">
<path d="M18.3333 13.3333H21.6666M28.3333 14.8433L28.5433 14.67C32.0699 11.76 33.8333 10.305 35.2499 11.0083C36.6666 11.71 36.6666 14.04 36.6666 18.6966V21.3033C36.6666 25.96 36.6666 28.29 35.2499 28.9916C33.8333 29.6933 32.0699 28.24 28.5433 25.33L28.3333 25.1566M3.33325 18.3333C3.33325 12.8333 3.33325 10.0833 5.04159 8.37496C6.74992 6.66663 9.49992 6.66663 14.9999 6.66663H16.6666C22.1666 6.66663 24.9166 6.66663 26.6249 8.37496C28.3333 10.0833 28.3333 12.8333 28.3333 18.3333V21.6666C28.3333 27.1666 28.3333 29.9166 26.6249 31.625C24.9166 33.3333 22.1666 33.3333 16.6666 33.3333H14.9999C9.49992 33.3333 6.74992 33.3333 5.04159 31.625C3.33325 29.9166 3.33325 27.1666 3.33325 21.6666V18.3333Z" stroke="#FFBE00" stroke-width="1.5" stroke-linecap="round" stroke-linejoin="round"/>
</svg>
